<svg width="512" height="512" viewBox="0 0 512 512" fill="none" xmlns="http://www.w3.org/2000/svg">
  <rect width="512" height="512" rx="128" fill="#2E7D32" />
  <svg x="102.4" y="102.4" width="307.2" height="307.2" viewBox="0 0 24 24" fill="none" stroke="white" stroke-width="2" stroke-linecap="round" stroke-linejoin="round">
    <path d="M3 9l9-7 9 7v11a2 2 0 0 1-2 2H5a2 2 0 0 1-2-2z" />
    <polyline points="9 22 9 12 15 12 15 22" />
    <circle cx="6" cy="9" r="2" />
    <circle cx="18" cy="9" r="2" />
    <circle cx="12" cy="6" r="2" />
    <path d="M8 14c0 2.5 2 4.5 4 4.5s4-2 4-4.5" />
  </svg>
</svg>