<svg width="192" height="192" viewBox="0 0 192 192" fill="none" xmlns="http://www.w3.org/2000/svg">
  <rect width="192" height="192" rx="48" fill="#2E7D32" />
  <svg x="38.4" y="38.4" width="115.2" height="115.2" viewBox="0 0 24 24" fill="none" stroke="white" stroke-width="2" stroke-linecap="round" stroke-linejoin="round">
    <!-- Kombinasi ikon rumah/desa dengan elemen komunitas -->
    <path d="M3 9l9-7 9 7v11a2 2 0 0 1-2 2H5a2 2 0 0 1-2-2z" />
    <polyline points="9 22 9 12 15 12 15 22" />
    <!-- Tambahan elemen komunitas -->
    <circle cx="6" cy="9" r="2" />
    <circle cx="18" cy="9" r="2" />
    <circle cx="12" cy="6" r="2" />
    <path d="M8 14c0 2.5 2 4.5 4 4.5s4-2 4-4.5" />
  </svg>
</svg>